<svg width="1050" height="861" viewBox="0 0 1050 861" fill="none" xmlns="http://www.w3.org/2000/svg">
<rect width="1050" height="861" rx="63" fill="#638BB3"/>
<path d="M597.32 364.271L651.125 411.871L594.607 472.453L544.418 419.083L597.32 364.271Z" fill="#94685B"/>
<path d="M144.5 580.101C113.626 580.766 52.2672 560.954 53.8189 476.388C55.3707 391.822 114.919 370.681 144.5 370.681C171.171 371.678 208.995 404.587 156.623 436.499C91.1581 476.388 57.6983 350.238 112.495 284.919C167.291 219.6 222.088 196.164 275.429 257.993C328.771 319.822 229.362 326.803 208.025 284.919C186.688 243.035 200.751 184.696 275.429 148.297C350.108 111.898 414.118 102.424 458.246 148.297C502.374 194.17 460.186 230.071 420.907 195.666C381.628 161.261 396.176 65.0278 534.379 82.9781C644.942 97.3383 681.958 171.4 686.646 206.635C690.36 234.558 650.567 270.359 605.178 216.109C548.442 148.297 716.711 26.1355 824.849 164.751C911.36 275.644 896.618 344.858 872.857 356.221C852.005 366.193 807.78 350.637 824.849 314.337C846.186 268.963 886.919 272.453 936.382 314.337C985.844 356.221 999.907 465.419 936.382 492.843C872.857 520.267 870.917 406.582 936.382 421.54C1001.85 436.499 1042.58 523.757 966.447 607.525C905.541 674.539 824.364 589.243 791.389 538.217C775.225 505.64 708.621 439.59 653.534 453.95M562.505 356.221C523.711 313.838 426.92 243.234 350.108 299.877C286.098 356.221 355.442 433.008 406.844 411.069C447.966 393.518 443.178 349.771 436.909 341.761C420.907 321.318 354.666 330.393 289.492 436.499C208.025 569.131 275.262 722.373 436.909 654.894C550.382 607.525 558.625 615.004 622.636 678.827C650.276 721.377 806.36 768.08 842.306 693.287C883.525 607.525 738.533 571.126 687.131 591.569C659.975 597.054 616.622 613.608 592.57 580.101C562.505 538.217 487.826 678.827 546.502 678.827C605.178 678.827 645.912 730.684 645.912 797M635.244 284.919L465.035 458.438C451.942 469.408 444.086 507.103 465.035 530.239C491.221 559.159 512.073 567.137 546.502 552.677C574.046 541.109 680.504 426.526 730.289 370.681C739.664 357.052 745.806 327.301 722.53 299.877C692.153 264.087 654.156 268.464 635.244 284.919ZM541.518 423.066L583.357 468.41C586.266 470.903 591.212 476.388 597.419 468.41C603.626 460.432 634.597 429.85 649.306 415.557C650.438 413.894 651.343 409.573 645.912 405.584C640.481 401.595 607.66 369.346 598.931 364.859C595.052 364.859 602.411 361.919 591.392 367.798C583.633 370.591 554.488 401.32 539.779 417.774C538.539 418.605 538.543 420.273 541.518 423.066Z" stroke="white" stroke-width="11"/>
<path d="M491.221 487.856C493.899 487.856 496.071 485.624 496.071 482.87C496.071 480.116 493.899 477.884 491.221 477.884C488.543 477.884 486.372 480.116 486.372 482.87C486.372 485.624 488.543 487.856 491.221 487.856Z" fill="#D9D9D9"/>
<path d="M659.975 321.318C662.653 321.318 664.824 319.085 664.824 316.331C664.824 313.578 662.653 311.345 659.975 311.345C657.297 311.345 655.125 313.578 655.125 316.331C655.125 319.085 657.297 321.318 659.975 321.318Z" fill="#D9D9D9"/>
<path d="M694.889 337.274C697.567 337.274 699.739 335.041 699.739 332.287C699.739 329.534 697.567 327.301 694.889 327.301C692.211 327.301 690.04 329.534 690.04 332.287C690.04 335.041 692.211 337.274 694.889 337.274Z" fill="#D9D9D9"/>
<path d="M669.673 365.196C672.352 365.196 674.523 362.964 674.523 360.21C674.523 357.456 672.352 355.224 669.673 355.224C666.995 355.224 664.824 357.456 664.824 360.21C664.824 362.964 666.995 365.196 669.673 365.196Z" fill="#D9D9D9"/>
<path d="M640.578 354.226C643.256 354.226 645.427 351.994 645.427 349.24C645.427 346.486 643.256 344.254 640.578 344.254C637.9 344.254 635.729 346.486 635.729 349.24C635.729 351.994 637.9 354.226 640.578 354.226Z" fill="#D9D9D9"/>
<path d="M521.286 510.793C523.964 510.793 526.136 508.56 526.136 505.807C526.136 503.053 523.964 500.82 521.286 500.82C518.608 500.82 516.437 503.053 516.437 505.807C516.437 508.56 518.608 510.793 521.286 510.793Z" fill="#D9D9D9"/>
<path d="M526.136 477.884C528.814 477.884 530.985 475.652 530.985 472.898C530.985 470.144 528.814 467.912 526.136 467.912C523.458 467.912 521.287 470.144 521.287 472.898C521.287 475.652 523.458 477.884 526.136 477.884Z" fill="#D9D9D9"/>
</svg>
