<svg width="1071" height="920" viewBox="0 0 1071 920" fill="none" xmlns="http://www.w3.org/2000/svg">
<rect x="0.331543" y="0.94458" width="1070.61" height="918.914" rx="63" fill="#638BB3"/>
<path d="M596.873 402.632L647.5 446.342L594.32 501.974L547.096 452.965L596.873 402.632Z" fill="#94685B"/>
<path d="M170.8 600.825C141.75 601.436 84.0153 583.243 85.4754 505.588C86.9355 427.932 142.967 408.519 170.8 408.519C195.896 409.434 231.485 439.654 182.207 468.958C120.609 505.588 89.1257 389.746 140.685 329.764C192.245 269.783 243.805 248.263 293.996 305.039C344.187 361.816 250.649 368.226 230.573 329.764C210.497 291.303 223.729 237.732 293.996 204.307C364.263 170.883 424.493 162.183 466.014 204.307C507.536 246.432 467.839 279.398 430.88 247.805C393.922 216.212 407.61 127.843 537.65 144.326C641.682 157.513 676.512 225.522 680.923 257.878C684.418 283.519 646.975 316.395 604.267 266.578C550.882 204.307 709.212 92.1284 810.963 219.417C892.363 321.248 878.492 384.805 856.135 395.24C836.515 404.398 794.902 390.112 810.963 356.779C831.039 315.113 869.367 318.318 915.908 356.779C962.448 395.24 975.68 495.514 915.908 520.697C856.135 545.88 854.31 441.485 915.908 455.222C977.506 468.958 1015.83 549.086 944.197 626.008C886.888 687.546 810.507 609.22 779.479 562.364C764.27 532.449 701.6 471.797 649.767 484.983M564.115 395.24C527.612 356.321 436.538 291.486 364.263 343.501C304.034 395.24 369.282 465.753 417.648 445.606C456.341 429.489 451.837 389.317 445.938 381.962C430.88 363.189 368.552 371.522 307.228 468.958C230.573 590.752 293.838 731.471 445.938 669.506C552.708 626.008 560.464 632.876 620.693 691.484C646.702 730.556 793.566 773.443 827.389 704.762C866.173 626.008 729.745 592.584 681.379 611.356C655.827 616.393 615.036 631.594 592.404 600.825C564.115 562.364 493.847 691.484 549.057 691.484C604.267 691.484 642.595 739.103 642.595 800M632.557 329.764L472.402 489.104C460.082 499.177 452.691 533.793 472.402 555.038C497.041 581.595 516.661 588.921 549.057 575.642C574.974 565.02 675.143 459.8 721.988 408.519C730.81 396.003 736.589 368.684 714.687 343.501C686.105 310.635 650.352 314.655 632.557 329.764ZM544.368 456.622L583.735 498.262C586.472 500.551 591.126 505.588 596.967 498.262C602.807 490.936 631.948 462.853 645.789 449.727C646.854 448.201 647.705 444.233 642.595 440.57C637.485 436.907 606.603 407.293 598.389 403.172C594.739 403.172 601.663 400.473 591.296 405.872C583.995 408.436 556.572 436.653 542.731 451.763C541.565 452.526 541.568 454.058 544.368 456.622Z" stroke="white" stroke-width="10"/>
<path d="M497.041 516.119C499.561 516.119 501.604 514.069 501.604 511.54C501.604 509.011 499.561 506.961 497.041 506.961C494.521 506.961 492.479 509.011 492.479 511.54C492.479 514.069 494.521 516.119 497.041 516.119Z" fill="#D9D9D9"/>
<path d="M655.827 363.189C658.347 363.189 660.39 361.139 660.39 358.61C660.39 356.082 658.347 354.032 655.827 354.032C653.307 354.032 651.264 356.082 651.264 358.61C651.264 361.139 653.307 363.189 655.827 363.189Z" fill="#D9D9D9"/>
<path d="M688.68 377.841C691.199 377.841 693.242 375.791 693.242 373.262C693.242 370.734 691.199 368.684 688.68 368.684C686.16 368.684 684.117 370.734 684.117 373.262C684.117 375.791 686.16 377.841 688.68 377.841Z" fill="#D9D9D9"/>
<path d="M664.953 403.482C667.473 403.482 669.516 401.432 669.516 398.903C669.516 396.375 667.473 394.325 664.953 394.325C662.433 394.325 660.39 396.375 660.39 398.903C660.39 401.432 662.433 403.482 664.953 403.482Z" fill="#D9D9D9"/>
<path d="M637.576 393.409C640.096 393.409 642.139 391.359 642.139 388.83C642.139 386.301 640.096 384.251 637.576 384.251C635.056 384.251 633.013 386.301 633.013 388.83C633.013 391.359 635.056 393.409 637.576 393.409Z" fill="#D9D9D9"/>
<path d="M525.33 537.181C527.85 537.181 529.893 535.131 529.893 532.602C529.893 530.073 527.85 528.023 525.33 528.023C522.81 528.023 520.768 530.073 520.768 532.602C520.768 535.131 522.81 537.181 525.33 537.181Z" fill="#D9D9D9"/>
<path d="M529.893 506.961C532.413 506.961 534.456 504.911 534.456 502.382C534.456 499.854 532.413 497.804 529.893 497.804C527.373 497.804 525.331 499.854 525.331 502.382C525.331 504.911 527.373 506.961 529.893 506.961Z" fill="#D9D9D9"/>
</svg>
