<svg width="233" height="210" viewBox="0 0 233 210" fill="none" xmlns="http://www.w3.org/2000/svg">
<path d="M213 4H25C13.9543 4 5 12.9543 5 24V190C5 201.046 13.9543 210 25 210H213C224.046 210 233 201.046 233 190V24C233 12.9543 224.046 4 213 4Z" fill="#6F90AF"/>
<path d="M108.565 108.057C109.7 108.057 110.62 107.136 110.62 106C110.62 104.864 109.7 103.943 108.565 103.943C107.431 103.943 106.511 104.864 106.511 106C106.511 107.136 107.431 108.057 108.565 108.057Z" fill="white"/>
<path d="M119.555 110.886C120.689 110.886 121.609 109.965 121.609 108.829C121.609 107.693 120.689 106.772 119.555 106.772C118.42 106.772 117.5 107.693 117.5 108.829C117.5 109.965 118.42 110.886 119.555 110.886Z" fill="white"/>
<path d="M112 115.113C113.135 115.113 114.054 114.192 114.054 113.056C114.054 111.92 113.135 110.999 112 110.999C110.865 110.999 109.946 111.92 109.946 113.056C109.946 114.192 110.865 115.113 112 115.113Z" fill="white"/>
<path d="M116.783 103.114C117.917 103.114 118.837 102.193 118.837 101.057C118.837 99.921 117.917 99 116.783 99C115.648 99 114.728 99.921 114.728 101.057C114.728 102.193 115.648 103.114 116.783 103.114Z" fill="white"/>
<path d="M140.101 83.4987C141.036 83.4987 141.793 82.7216 141.793 81.7631C141.793 80.8046 141.036 80.0276 140.101 80.0276C139.166 80.0276 138.408 80.8046 138.408 81.7631C138.408 82.7216 139.166 83.4987 140.101 83.4987Z" fill="white"/>
<path d="M148.94 74.0497C149.874 74.0497 150.632 73.2727 150.632 72.3142C150.632 71.3556 149.874 70.5786 148.94 70.5786C148.005 70.5786 147.247 71.3556 147.247 72.3142C147.247 73.2727 148.005 74.0497 148.94 74.0497Z" fill="white"/>
<path d="M148.375 81.7631C149.31 81.7631 150.068 80.986 150.068 80.0275C150.068 79.069 149.31 78.292 148.375 78.292C147.441 78.292 146.683 79.069 146.683 80.0275C146.683 80.986 147.441 81.7631 148.375 81.7631Z" fill="white"/>
<path d="M140.665 75.785C141.6 75.785 142.358 75.008 142.358 74.0495C142.358 73.091 141.6 72.314 140.665 72.314C139.73 72.314 138.973 73.091 138.973 74.0495C138.973 75.008 139.73 75.785 140.665 75.785Z" fill="white"/>
<path d="M37.6773 130.983C22.2573 132.379 5.37918 107.417 17.4748 93.7658M17.4748 93.7658C20.4255 90.4357 25.1005 87.7786 31.9416 86.3416C43.5072 86.3416 40.5295 99.0688 37.6773 101.865C26.0933 107.804 19.3822 98.9404 17.4748 93.7658ZM17.4748 93.7658C14.6808 81.6815 14.8097 55.314 37.6773 46.5206C60.5449 37.7272 63.3469 50.5702 59.7739 56.6446C52.5964 60.2765 40.141 62.1597 47.7384 40.6391C52.4084 33.5363 66.9952 19.7162 87.9821 21.2589C108.969 22.8016 113.902 30.2581 113.746 33.7934C115.093 38.0358 115.344 46.5206 105.565 46.5206C95.7864 46.5206 94.9088 38.8715 95.6924 35.0468C97.8236 28.2975 107.803 15.7631 130.671 19.6198C153.538 23.4765 162.264 35.2396 163.768 40.6391C165.241 45.3316 165.705 55.1019 155.776 56.6446C145.847 58.1873 145.245 50.5382 146.185 46.5206C149.476 39.7713 161.681 29.146 184.172 40.6391C206.663 52.1322 209.341 70.5611 207.866 78.3388C207.24 85.4096 202.977 98.5289 190.941 94.4408C178.907 90.3526 185.927 80.203 190.941 75.6391C195.267 73.068 205.741 71.7245 213.038 86.9201C222.159 105.915 220.09 103.697 222.159 111.7C224.227 119.702 223.663 131.755 213.038 135.804C202.413 139.854 182.386 124.234 176.462 117.967C175.647 117.485 171.29 114.496 160.383 106.397C149.476 98.2975 140.105 101.994 136.782 104.854M136.782 104.854L120.045 123.366C116.817 126.098 108.8 129.672 102.556 122.113C94.7521 112.664 95.4103 106.59 96.5386 105.722C97.1528 105.249 110.228 91.6803 122.866 78.521M136.782 104.854L161.606 79.6887C162.577 76.3784 162.772 68.562 155.776 63.7796C148.78 58.9972 141.703 60.3729 139.039 61.6584C134.634 66.2579 128.798 72.3443 122.866 78.521M122.866 78.521L98.8893 58.8622C94.6581 56.1305 84.221 52.3058 76.3227 58.8622C68.4244 65.4187 61.9992 72.7787 59.7739 75.6391C57.5026 79.1925 54.0627 87.5782 57.0845 94.4408M57.0845 94.4408C57.3153 94.9649 57.5838 95.4801 57.8933 95.9834C62.2562 103.08 75.8212 97.1405 82.0584 93.2837C83.8135 91.6446 86.5341 87.4986 83.3748 84.0275C80.2155 80.5565 72.4048 82.5812 68.8946 84.0275C65.1271 86.6308 57.4907 92.3581 57.0845 94.4408ZM57.0845 94.4408C55.4108 97.1727 51.6311 103.736 49.901 108.132C47.7384 113.628 45.9519 117.774 47.9264 127.802C49.901 137.829 57.7053 146.796 68.8946 146.121C80.0838 145.446 90.897 142.072 101.522 141.397C112.147 140.722 124.465 140.047 128.226 141.397C131.987 142.747 144.493 149.399 150.886 152.967C157.28 156.534 171.384 161.452 175.616 159.331C179.847 157.209 182.762 156.727 184.172 153.545C185.583 150.364 191.318 141.879 176.462 127.898C161.982 117.678 136.782 122.113 128.226 126.452C121.017 130.63 110.925 143.267 128.226 160.391C144.305 173.215 148.63 175.432 150.886 178.132C152.975 180.631 160.195 183.821 156.716 204.454" stroke="white" stroke-width="6"/>
<path d="M128.434 84.4695L128.498 84.3869L128.55 84.2962C128.976 83.5531 129.291 83.5062 129.313 83.5029L129.314 83.5028C129.349 83.4971 129.388 83.4999 129.431 83.5135C129.449 83.5191 129.466 83.526 129.48 83.5332C130.832 84.9225 132.874 86.9915 134.729 88.8117C135.678 89.7429 136.586 90.6164 137.332 91.3028C138.022 91.9385 138.707 92.5418 139.146 92.8042C139.298 92.8952 139.393 93.0291 139.451 93.2369C139.465 93.2852 139.475 93.3335 139.482 93.3806L128.332 103.002C127.266 101.705 125.581 99.7519 123.872 97.9717C122.997 97.06 122.101 96.1783 121.27 95.4486C120.466 94.7429 119.626 94.0917 118.874 93.732C118.668 93.6335 118.562 93.5522 118.513 93.5059C118.538 93.4304 118.598 93.3057 118.72 93.1453C118.851 92.9724 119.011 92.8127 119.156 92.6941C120.345 91.781 122.214 90.2936 123.993 88.7704C125.742 87.2729 127.529 85.6373 128.434 84.4695ZM128.755 103.777C128.754 103.777 128.754 103.776 128.752 103.774C128.754 103.776 128.755 103.777 128.755 103.777Z" fill="#9C7471" stroke="white" stroke-width="3"/>
</svg>
