<svg width="1014" height="734" viewBox="0 0 1014 734" fill="none" xmlns="http://www.w3.org/2000/svg">
<path d="M108.53 515.717C76.6965 516.384 13.4298 496.517 15.0298 411.717C16.6298 326.917 78.0298 305.717 108.53 305.717C136.03 306.717 175.03 339.717 121.03 371.717C53.5298 411.717 19.0298 285.217 75.5298 219.717C132.03 154.217 188.53 130.717 243.53 192.717C298.53 254.717 196.03 261.717 174.03 219.717C152.03 177.717 166.53 119.217 243.53 82.717C320.53 46.217 386.53 36.717 432.03 82.717C477.53 128.717 434.03 164.717 393.53 130.217C353.03 95.7169 368.03 -0.783123 510.53 17.2169C624.53 31.6169 662.696 105.883 667.53 141.217C671.36 169.217 630.33 205.117 583.53 150.717C525.03 82.717 698.53 -39.7832 810.03 99.2168C899.23 210.417 884.03 279.821 859.53 291.217C838.03 301.217 792.43 285.617 810.03 249.217C832.03 203.717 874.03 207.217 925.03 249.217C976.03 291.217 990.53 400.717 925.03 428.217C859.53 455.717 857.53 341.717 925.03 356.717C992.53 371.717 1034.53 459.217 956.03 543.217C893.23 610.417 809.53 524.883 775.53 473.717C758.863 441.05 690.189 374.817 633.389 389.217M539.53 291.217C499.53 248.717 399.73 177.917 320.53 234.717C254.53 291.217 326.03 368.217 379.03 346.217C421.43 328.617 416.494 284.748 410.03 276.717C393.53 256.217 325.23 265.317 258.03 371.717C174.03 504.717 243.357 658.383 410.03 590.717C527.03 543.217 535.53 550.717 601.53 614.717C630.03 657.383 790.966 704.217 828.03 629.217C870.53 543.217 721.03 506.717 668.03 527.217C640.03 532.717 595.33 549.317 570.53 515.717C539.53 473.717 462.53 614.717 523.03 614.717C583.53 614.717 625.53 666.717 625.53 733.217M614.53 219.717L439.03 393.717C425.53 404.717 417.43 442.517 439.03 465.717C466.03 494.717 487.53 502.717 523.03 488.217C551.43 476.617 661.196 361.717 712.53 305.717C722.196 292.05 728.53 262.217 704.53 234.717C673.209 198.828 634.03 203.217 614.53 219.717ZM513.53 357.217L561.03 403.717C564.03 406.217 569.13 411.717 575.53 403.717C581.93 395.717 613.863 365.05 629.03 350.717C630.196 349.05 631.13 344.717 625.53 340.717C619.93 336.717 584.53 300.217 575.53 295.717C571.53 295.717 579.03 293.167 566.03 297.717C558.03 300.517 531.196 329.217 516.03 345.717C514.751 346.55 510.462 354.417 513.53 357.217Z" stroke="#202428" stroke-width="30"/>
</svg>
